<svg xmlns="http://www.w3.org/2000/svg" xmlns:xlink="http://www.w3.org/1999/xlink" width="70" height="72.37" viewBox="0 0 70 72.37"><defs><style>.cls-1{fill:#2684ff;}.cls-2{fill:url(#linear-gradient);}.cls-3{fill:url(#linear-gradient-2);}</style><linearGradient id="linear-gradient" x1="33.09" y1="14.66" x2="18.15" y2="29.6" gradientUnits="userSpaceOnUse"><stop offset="0.18" stop-color="#0052cc"/><stop offset="1" stop-color="#2684ff"/></linearGradient><linearGradient id="linear-gradient-2" x1="37.05" y1="57.59" x2="51.96" y2="42.67" xlink:href="#linear-gradient"/></defs><title>jira software-icon-gradient-blue</title><g id="Layer_2" data-name="Layer 2"><g id="Logos"><path class="cls-1" d="M69.16,34.16,38,3,35,0h0L11.56,23.44h0L.84,34.16a2.86,2.86,0,0,0,0,4.05L22.26,59.63,35,72.37,58.44,48.93l.37-.36L69.16,38.21A2.86,2.86,0,0,0,69.16,34.16ZM35,46.89,24.3,36.19,35,25.49l10.7,10.7Z"/><path class="cls-2" d="M35,25.49A18,18,0,0,1,34.93.08L11.52,23.49,24.26,36.23,35,25.49Z"/><path class="cls-3" d="M45.73,36.16,35,46.89a18,18,0,0,1,0,25.48h0L58.47,48.9Z"/></g></g></svg>