<svg xmlns="http://www.w3.org/2000/svg" xmlns:xlink="http://www.w3.org/1999/xlink" width="66" height="63.5" viewBox="0 0 66 63.5"><defs><style>.cls-1{fill:url(#linear-gradient);}.cls-2{fill:url(#linear-gradient-2);}</style><linearGradient id="linear-gradient" x1="62.77" y1="67.52" x2="21.4" y2="43.75" gradientUnits="userSpaceOnUse"><stop offset="0" stop-color="#0052cc"/><stop offset="0.92" stop-color="#2380fb"/><stop offset="1" stop-color="#2684ff"/></linearGradient><linearGradient id="linear-gradient-2" x1="14053" y1="2683.97" x2="14011.63" y2="2660.2" gradientTransform="translate(14056.23 2679.96) rotate(180)" xlink:href="#linear-gradient"/></defs><title>confluence-icon-gradient-blue</title><g id="Layer_2" data-name="Layer 2"><g id="Logos"><path class="cls-1" d="M2.35,48.46C1.67,49.57.89,50.87.29,51.89A2.1,2.1,0,0,0,1,54.75l13.67,8.44a2.09,2.09,0,0,0,2.91-.72c.54-.92,1.25-2.1,2-3.37,5.42-8.94,10.87-7.85,20.68-3.18l13.56,6.44a2.1,2.1,0,0,0,2.82-1l6.51-14.7a2.09,2.09,0,0,0-1-2.75c-2.87-1.35-8.56-4-13.65-6.5C30,28.39,14.33,29,2.35,48.46Z"/><path class="cls-2" d="M63.65,15.05c.68-1.11,1.46-2.41,2.06-3.44A2.1,2.1,0,0,0,65,8.75L51.33.32A2.1,2.1,0,0,0,48.42,1c-.54.92-1.25,2.1-2,3.37C41,13.34,35.53,12.25,25.72,7.59L12.16,1.14A2.11,2.11,0,0,0,9.34,2.19L2.83,16.89a2.1,2.1,0,0,0,1,2.76c2.87,1.34,8.56,4,13.65,6.49C36,35.11,51.67,34.52,63.65,15.05Z"/></g></g></svg>